<svg width="545" height="278" viewBox="0 0 545 278" fill="none" xmlns="http://www.w3.org/2000/svg">
<g clip-path="url(#clip0_1_17556)">
<path d="M148.803 227.371C163.598 227.371 175.593 215.095 175.593 199.951C175.593 184.806 163.598 172.53 148.803 172.53C134.007 172.53 122.013 184.806 122.013 199.951C122.013 215.095 134.007 227.371 148.803 227.371Z" fill="#E4E4E4"/>
<path opacity="0.2" d="M129.022 181.636C126.523 187.619 126.184 194.316 128.066 200.531C129.947 206.747 133.927 212.075 139.293 215.563C144.659 219.052 151.062 220.474 157.358 219.575C163.654 218.676 169.433 215.515 173.662 210.657C172.135 214.312 169.851 217.584 166.966 220.246C164.081 222.908 160.666 224.896 156.956 226.073C153.246 227.25 149.331 227.587 145.481 227.061C141.632 226.535 137.94 225.158 134.661 223.027C131.383 220.896 128.597 218.06 126.495 214.717C124.394 211.374 123.027 207.603 122.491 203.666C121.954 199.729 122.261 195.719 123.389 191.915C124.516 188.111 126.439 184.604 129.022 181.636Z" fill="black"/>
<path d="M148.877 199.951H148.95L150.275 277.693H147.478L148.877 199.951Z" fill="#3F3D56"/>
<path d="M94.5995 176.235C124.43 176.235 148.612 151.483 148.612 120.95C148.612 90.4166 124.43 65.6645 94.5995 65.6645C64.7691 65.6645 40.5867 90.4166 40.5867 120.95C40.5867 151.483 64.7691 176.235 94.5995 176.235Z" fill="#E4E4E4"/>
<path opacity="0.2" d="M54.7183 84.0236C49.6801 96.0864 48.9966 109.59 52.79 122.121C56.5834 134.652 64.6065 145.395 75.4255 152.428C86.2445 159.462 99.1546 162.329 111.849 160.517C124.543 158.705 136.194 152.331 144.72 142.536C141.642 149.906 137.036 156.503 131.22 161.87C125.404 167.237 118.518 171.245 111.038 173.617C103.558 175.99 95.6643 176.669 87.9027 175.609C80.1411 174.549 72.6975 171.774 66.0876 167.476C59.4778 163.179 53.8597 157.462 49.6227 150.722C45.3857 143.982 42.631 136.379 41.5495 128.441C40.4681 120.503 41.0856 112.419 43.3595 104.749C45.6334 97.0797 49.5091 90.0078 54.7183 84.0236Z" fill="black"/>
<path d="M94.7478 120.95H94.8965L97.5676 277.693H91.9287L94.7478 120.95Z" fill="#3F3D56"/>
<path d="M450.708 196.564H203.136V271.684H450.708V196.564Z" fill="#F0F0F0"/>
<path d="M341.355 212.088H312.488V271.684H341.355V212.088Z" fill="#CACACA"/>
<path d="M436.274 107.922H217.57V177.033H436.274V107.922Z" fill="#F0F0F0"/>
<path d="M458.447 112.179H195.397C194.958 112.179 194.529 112.045 194.165 111.793C193.801 111.541 193.519 111.184 193.355 110.767C193.191 110.35 193.152 109.893 193.244 109.453C193.336 109.014 193.555 108.612 193.871 108.301L265.763 37.5697V6.7608C265.764 6.16331 265.996 5.59049 266.409 5.16801C266.821 4.74552 267.381 4.50787 267.965 4.5072H282.154C282.737 4.50785 283.297 4.7455 283.71 5.16799C284.123 5.59048 284.355 6.16331 284.355 6.7608V19.2778L289.785 13.9353C298.671 5.19282 310.461 0.216665 322.784 0.00691026C335.108 -0.202845 347.052 4.36934 356.217 12.8046L459.919 108.249C460.25 108.554 460.483 108.955 460.587 109.398C460.692 109.841 460.662 110.306 460.503 110.732C460.343 111.158 460.061 111.524 459.694 111.782C459.327 112.041 458.892 112.179 458.447 112.179Z" fill="#CACACA"/>
<path d="M275.304 125.45C277.135 125.45 278.948 125.819 280.64 126.537C282.332 127.254 283.869 128.305 285.164 129.631C286.459 130.956 287.486 132.529 288.187 134.261C288.887 135.993 289.248 137.849 289.248 139.723V159.004H261.36V139.723C261.36 137.849 261.72 135.993 262.421 134.261C263.122 132.529 264.149 130.956 265.444 129.631C266.739 128.305 268.276 127.254 269.968 126.537C271.659 125.819 273.473 125.45 275.304 125.45Z" fill="white"/>
<path d="M326.922 125.701C330.62 125.701 334.167 127.204 336.782 129.881C339.397 132.558 340.866 136.188 340.866 139.973V159.254H312.978V139.973C312.978 136.188 314.447 132.558 317.062 129.881C319.677 127.204 323.224 125.701 326.922 125.701Z" fill="white"/>
<path d="M378.54 125.951C382.238 125.951 385.785 127.455 388.4 130.131C391.015 132.808 392.484 136.438 392.484 140.224V159.505H364.596V140.224C364.596 136.438 366.065 132.808 368.68 130.131C371.295 127.455 374.842 125.951 378.54 125.951Z" fill="white"/>
<path d="M399.089 211.337C402.788 211.337 406.334 212.841 408.949 215.518C411.565 218.194 413.034 221.825 413.034 225.61V244.891H385.145V225.61C385.145 221.825 386.614 218.194 389.229 215.518C391.844 212.841 395.391 211.337 399.089 211.337Z" fill="white"/>
<path d="M261.115 211.337C264.813 211.337 268.36 212.841 270.975 215.518C273.59 218.194 275.059 221.825 275.059 225.61V244.891H247.171V225.61C247.171 223.736 247.531 221.88 248.232 220.148C248.933 218.416 249.96 216.843 251.255 215.518C252.55 214.192 254.087 213.141 255.779 212.424C257.471 211.706 259.284 211.337 261.115 211.337Z" fill="white"/>
<path d="M486.877 197.737L440.435 176.703C440.186 176.59 439.916 176.532 439.643 176.532H218.31C218.058 176.532 217.807 176.582 217.573 176.679L167.022 197.713C166.601 197.888 166.253 198.207 166.037 198.615C165.821 199.024 165.751 199.497 165.838 199.953C165.925 200.409 166.164 200.82 166.515 201.115C166.865 201.41 167.305 201.572 167.759 201.572H180.874V270.682H179.407V277.693H474.437V270.682H471.991V201.572H486.085C486.534 201.572 486.969 201.414 487.317 201.124C487.666 200.835 487.907 200.432 488 199.983C488.092 199.533 488.031 199.065 487.827 198.656C487.623 198.247 487.287 197.922 486.877 197.737ZM468.077 270.682H184.789V201.572H468.077V270.682Z" fill="#CACACA"/>
<path d="M292.673 156.249H256.956V162.259H292.673V156.249Z" fill="#CACACA"/>
<path d="M345.025 156.249H309.308V162.259H345.025V156.249Z" fill="#CACACA"/>
<path d="M397.377 156.249H361.66V162.259H397.377V156.249Z" fill="#CACACA"/>
<path d="M416.948 242.888H381.231V248.897H416.948V242.888Z" fill="#CACACA"/>
<path d="M278.484 242.888H242.767V248.897H278.484V242.888Z" fill="#CACACA"/>
<path d="M544.4 278H0.59956C0.440547 278 0.288046 277.935 0.175607 277.82C0.0631673 277.705 0 277.549 0 277.386C0 277.224 0.0631673 277.067 0.175607 276.952C0.288046 276.837 0.440547 276.773 0.59956 276.773H544.4C544.559 276.773 544.712 276.837 544.824 276.952C544.937 277.067 545 277.224 545 277.386C545 277.549 544.937 277.705 544.824 277.82C544.712 277.935 544.559 278 544.4 278Z" fill="#3F3D56"/>
<path d="M407.621 106.892C407.621 107.285 407.615 107.684 407.609 108.076C407.603 108.549 407.591 109.015 407.573 109.488C407.555 109.899 407.537 110.304 407.513 110.709C407.441 112.065 407.327 113.415 407.171 114.772C407.135 115.115 407.093 115.453 407.045 115.796C407.009 116.06 406.973 116.33 406.931 116.6C406.889 116.901 406.847 117.202 406.799 117.503C406.703 118.141 406.595 118.779 406.475 119.417C406.416 119.736 406.356 120.056 406.29 120.375C406.164 121.007 406.026 121.645 405.882 122.277C405.87 122.326 405.858 122.381 405.846 122.43C405.774 122.743 405.702 123.05 405.624 123.363C405.6 123.455 405.582 123.541 405.552 123.633C405.498 123.866 405.438 124.1 405.378 124.333C405.295 124.658 405.211 124.977 405.121 125.302C404.977 125.806 404.833 126.303 404.683 126.806C404.664 126.858 404.648 126.912 404.635 126.966C404.347 127.917 404.041 128.856 403.706 129.789C403.532 130.28 403.346 130.777 403.16 131.268C402.974 131.758 402.782 132.249 402.584 132.734C402.393 133.207 402.195 133.679 401.997 134.146C401.949 134.256 401.901 134.367 401.847 134.477C401.637 134.962 401.421 135.434 401.199 135.907C401.193 135.913 401.193 135.925 401.187 135.932C401.014 136.312 400.828 136.693 400.642 137.067C400.642 137.078 400.637 137.089 400.63 137.098C400.45 137.466 400.264 137.834 400.072 138.196L399.766 138.791L399.73 138.859C399.347 139.589 398.951 140.313 398.531 141.031C398.441 141.191 398.352 141.35 398.262 141.504C398.172 141.663 398.076 141.823 397.98 141.976C397.92 142.087 397.854 142.197 397.782 142.308C397.656 142.516 397.53 142.731 397.398 142.94C397.374 142.983 397.344 143.026 397.32 143.069C397.092 143.431 396.865 143.787 396.637 144.149C396.355 144.584 396.067 145.014 395.773 145.444L389.262 156.11L388.98 155.87L388.902 155.797H388.896L388.639 155.576L387.931 154.962C387.715 155.177 387.505 155.392 387.29 155.6C387.206 155.686 387.116 155.766 387.032 155.852C386.966 155.913 386.906 155.974 386.84 156.036C375.583 167.288 360.609 173.803 344.883 174.293H344.865C332.96 174.628 321.175 171.781 310.672 166.033C310.438 165.91 310.21 165.787 309.982 165.646C308.615 164.885 307.278 164.081 305.965 163.222C305.959 163.216 305.953 163.216 305.947 163.21C304.424 162.105 302.938 160.927 301.487 159.675C293.703 152.959 287.544 144.489 283.495 134.929C279.445 125.368 277.614 114.978 278.146 104.572C278.164 104.161 278.188 103.756 278.218 103.345C278.314 101.86 278.462 100.381 278.661 98.9077C278.715 98.4965 278.775 98.0853 278.835 97.6803H407.009C407.261 99.5582 407.435 101.446 407.531 103.345C407.591 104.529 407.621 105.708 407.621 106.892Z" fill="#F0F0F0"/>
<path d="M407.009 97.6805C404.701 81.9734 396.964 67.6353 385.204 57.2726C373.443 46.9098 358.44 41.2104 342.922 41.2104C327.404 41.2104 312.401 46.9098 300.641 57.2726C288.88 67.6353 281.143 81.9734 278.835 97.6805C278.775 98.0855 278.715 98.4967 278.661 98.9079C278.464 100.381 278.316 101.86 278.218 103.345H407.531C407.435 101.449 407.261 99.5604 407.009 97.6805Z" fill="#6C63FF"/>
<path d="M347.121 166.031H309.985V135.625C310.67 121.729 322.274 120.607 333.176 121.353C335.008 121.353 336.821 121.722 338.513 122.439C340.204 123.156 341.742 124.207 343.036 125.533C344.331 126.858 345.358 128.431 346.059 130.163C346.76 131.895 347.121 133.751 347.121 135.625V166.031Z" fill="#6C63FF"/>
<path d="M309.982 144.413V144.419C309.982 144.425 309.988 144.425 309.994 144.425L309.982 144.413ZM295.047 97.6805C295.023 97.8339 294.993 97.9873 294.969 98.1407C294.993 97.9873 295.023 97.8339 295.053 97.6805H295.047ZM294.304 103.345C294.286 103.578 294.268 103.811 294.256 104.044C294.268 103.811 294.286 103.578 294.31 103.345C294.309 103.302 294.311 103.259 294.316 103.216C294.31 103.259 294.31 103.302 294.304 103.345ZM309.982 144.419C309.982 144.425 309.988 144.425 309.994 144.425L309.982 144.413V144.419ZM295.047 97.6805C295.023 97.8339 294.993 97.9873 294.969 98.1407C294.993 97.9873 295.023 97.8339 295.053 97.6805H295.047ZM294.256 104.044C294.268 103.811 294.286 103.578 294.31 103.345C294.309 103.302 294.311 103.259 294.316 103.216C294.31 103.259 294.31 103.302 294.304 103.345C294.286 103.578 294.268 103.811 294.256 104.044ZM479.484 216.938C479.367 216.812 479.243 216.693 479.112 216.582L479.106 216.576L449.416 190.93L448.649 190.267L445.729 187.745L444.997 187.113L440.836 183.517L439.697 182.535L437.341 180.497L436.136 179.454L424.768 169.641L418.251 164.014L417.376 163.259L398.172 146.671C398.465 146.241 398.753 145.812 399.035 145.376C399.263 145.014 399.491 144.658 399.719 144.296C399.742 144.253 399.772 144.21 399.796 144.167C399.928 143.959 400.054 143.744 400.18 143.535C400.252 143.425 400.318 143.314 400.378 143.204C400.474 143.05 400.57 142.891 400.66 142.731C400.75 142.578 400.84 142.418 400.93 142.259C401.349 141.541 401.745 140.816 402.129 140.086L402.165 140.019L402.47 139.423C402.662 139.061 402.848 138.693 403.028 138.325C403.036 138.317 403.04 138.306 403.04 138.294C403.226 137.92 403.412 137.539 403.586 137.159C403.592 137.153 403.592 137.141 403.598 137.134C403.819 136.662 404.035 136.189 404.245 135.705C404.299 135.594 404.347 135.484 404.395 135.373C404.593 134.907 404.791 134.434 404.983 133.962C405.18 133.477 405.372 132.986 405.558 132.495C405.744 132.004 405.93 131.507 406.104 131.016C406.434 130.077 406.743 129.136 407.033 128.193C407.046 128.139 407.062 128.086 407.081 128.033C407.231 127.53 407.375 127.033 407.519 126.53C407.609 126.205 407.693 125.886 407.777 125.56C407.836 125.327 407.896 125.094 407.95 124.861C407.98 124.769 407.998 124.683 408.022 124.591C408.1 124.278 408.172 123.971 408.244 123.658C408.256 123.609 408.268 123.554 408.28 123.504C408.424 122.872 408.562 122.234 408.688 121.602C408.754 121.283 408.814 120.964 408.874 120.645C408.988 120.007 409.102 119.368 409.197 118.73C409.245 118.429 409.287 118.129 409.329 117.828C409.371 117.558 409.407 117.288 409.443 117.024C409.491 116.68 409.533 116.343 409.569 115.999C409.725 114.643 409.839 113.293 409.911 111.936C409.935 111.531 409.953 111.126 409.971 110.715C409.989 110.243 410.001 109.776 410.007 109.304C410.013 108.911 410.019 108.512 410.019 108.119C410.019 106.935 409.989 105.757 409.929 104.572C409.833 102.676 409.659 100.788 409.407 98.9079C407.259 82.8383 399.533 68.0966 387.641 57.3775C375.749 46.6584 360.485 40.6777 344.64 40.5288C328.794 40.3798 313.426 46.0725 301.343 56.5663C289.261 67.0601 281.271 81.654 278.835 97.6805C278.775 98.0855 278.715 98.4967 278.661 98.9079C278.464 100.381 278.316 101.86 278.218 103.345C278.188 103.756 278.164 104.161 278.146 104.572C277.614 114.978 279.445 125.369 283.495 134.929C287.544 144.489 293.703 152.959 301.487 159.675C302.937 160.927 304.424 162.105 305.947 163.21C305.953 163.216 305.959 163.216 305.965 163.222C306.475 163.59 306.984 163.952 307.5 164.308C308.321 164.861 309.149 165.401 309.982 165.916C310.048 165.953 310.114 165.996 310.18 166.033C310.9 166.475 311.625 166.898 312.351 167.309H312.356C315.057 168.829 317.86 170.15 320.744 171.262C329.207 174.52 338.232 175.97 347.263 175.52H347.281C357.821 174.999 368.085 171.89 377.205 166.456C378.53 165.671 379.837 164.83 381.114 163.934C381.432 163.713 381.756 163.486 382.067 163.259C382.451 162.983 382.835 162.694 383.219 162.406C383.225 162.406 383.225 162.4 383.231 162.4C383.259 162.375 383.289 162.353 383.32 162.332C383.578 162.13 383.842 161.927 384.094 161.731C384.16 161.682 384.226 161.633 384.292 161.578C384.309 161.565 384.325 161.551 384.34 161.535C384.49 161.424 384.633 161.301 384.783 161.185C384.933 161.068 385.077 160.945 385.227 160.823C385.252 160.806 385.277 160.788 385.299 160.767C385.467 160.626 385.635 160.491 385.803 160.35C385.976 160.209 386.144 160.062 386.306 159.921C386.474 159.779 386.636 159.638 386.804 159.491C386.948 159.368 387.098 159.239 387.242 159.104C387.289 159.067 387.332 159.025 387.38 158.982C387.398 158.963 387.418 158.947 387.439 158.932C387.637 158.761 387.829 158.583 388.021 158.405C388.069 158.362 388.111 158.319 388.159 158.276C388.453 158.006 388.747 157.736 389.034 157.454C389.1 157.392 389.172 157.325 389.238 157.263C389.304 157.202 389.364 157.14 389.43 157.079C389.514 156.993 389.604 156.913 389.688 156.828C389.904 156.619 390.114 156.404 390.329 156.189L391.037 156.803L391.295 157.024H391.301L391.379 157.098L391.66 157.337L395.845 160.958L395.935 161.037L396.007 161.093L396.481 161.504L397.428 162.326L398.376 163.142L398.513 163.259L402.92 167.064L403.532 167.592L407.783 171.262L429.786 190.267L430.554 190.93L460.67 216.938L468.392 223.609L471.264 226.088C471.873 226.616 472.579 227.016 473.339 227.265C474.1 227.514 474.901 227.606 475.697 227.538C476.493 227.47 477.267 227.241 477.977 226.866C478.686 226.491 479.317 225.977 479.832 225.352C480.263 224.834 480.606 224.244 480.845 223.609C481.28 222.483 481.383 221.25 481.141 220.065C480.9 218.879 480.323 217.792 479.484 216.938ZM305.809 74.6795C311.824 67.3837 319.733 61.9784 328.622 59.0882C337.511 56.198 347.017 55.9407 356.043 58.3461C365.069 60.7514 373.246 65.7213 379.629 72.6816C386.012 79.6419 390.341 88.3086 392.116 97.6805C392.194 98.0917 392.266 98.4967 392.332 98.9079C392.578 100.375 392.758 101.86 392.866 103.345C392.895 103.756 392.925 104.161 392.943 104.572C392.997 105.493 393.021 106.419 393.021 107.34C393.025 112.924 392.121 118.469 390.347 123.75V123.756C388.365 129.677 385.321 135.167 381.372 139.945C381.288 140.043 381.204 140.148 381.114 140.246C380.323 141.203 379.489 142.124 378.632 143.001C378.626 143.007 378.62 143.02 378.614 143.026C378.32 143.327 378.02 143.633 377.721 143.916C377.109 144.523 376.486 145.1 375.85 145.652C374.897 146.505 373.919 147.305 372.918 148.052C372.582 148.303 372.247 148.549 371.905 148.795C371.569 149.04 371.227 149.273 370.886 149.506C370.202 149.973 369.507 150.421 368.805 150.844C368.457 151.059 368.098 151.268 367.744 151.47C367.39 151.679 367.03 151.875 366.671 152.065C366.311 152.262 365.951 152.452 365.586 152.636C364.86 153.01 364.129 153.36 363.385 153.686C363.013 153.857 362.642 154.017 362.27 154.164C362.036 154.262 361.808 154.361 361.574 154.447C361.483 154.49 361.389 154.527 361.293 154.557C361.167 154.612 361.041 154.661 360.915 154.704C360.874 154.723 360.832 154.74 360.789 154.753C360.531 154.858 360.279 154.95 360.016 155.042C359.638 155.183 359.26 155.312 358.876 155.435C358.493 155.563 358.115 155.686 357.731 155.797C357.347 155.919 356.958 156.03 356.574 156.134C356.184 156.245 355.801 156.349 355.411 156.441C354.997 156.551 354.584 156.65 354.164 156.742C353.798 156.828 353.438 156.901 353.073 156.969C352.731 157.042 352.383 157.104 352.041 157.165C351.562 157.251 351.082 157.331 350.597 157.398C350.333 157.441 350.075 157.478 349.811 157.503C349.697 157.521 349.589 157.533 349.481 157.546C349.146 157.595 348.81 157.632 348.48 157.662C348.39 157.668 348.306 157.681 348.222 157.687C347.857 157.724 347.485 157.754 347.119 157.785C346.334 157.84 345.554 157.877 344.769 157.895C344.373 157.902 343.971 157.908 343.576 157.908C343.18 157.908 342.784 157.902 342.388 157.889C342.388 157.889 342.388 157.895 342.382 157.889C342.376 157.895 342.377 157.895 342.371 157.889C342.37 157.89 342.369 157.891 342.368 157.891C342.367 157.892 342.366 157.892 342.365 157.892C342.363 157.892 342.362 157.892 342.361 157.891C342.36 157.891 342.359 157.89 342.358 157.889C342.339 157.895 342.318 157.895 342.299 157.889C342.017 157.889 341.735 157.877 341.459 157.859C341.255 157.853 341.046 157.846 340.836 157.828C340.554 157.816 340.272 157.797 339.99 157.773C339.9 157.773 339.81 157.761 339.721 157.754C339.678 157.753 339.636 157.749 339.595 157.742C339.307 157.718 339.013 157.693 338.725 157.662C338.581 157.65 338.432 157.638 338.287 157.619C337.85 157.57 337.412 157.515 336.98 157.454C336.489 157.392 335.997 157.319 335.512 157.227C335.284 157.196 335.062 157.153 334.84 157.11C334.546 157.061 334.253 157.006 333.959 156.944C333.653 156.883 333.347 156.822 333.041 156.748C332.796 156.693 332.544 156.637 332.298 156.576C332.178 156.552 332.058 156.521 331.944 156.49C331.315 156.337 330.691 156.171 330.073 155.987C329.684 155.876 329.294 155.76 328.91 155.637C328.383 155.471 327.861 155.294 327.34 155.103C327.136 155.036 326.938 154.962 326.734 154.882C326.53 154.815 326.332 154.735 326.128 154.655C325.943 154.588 325.757 154.514 325.577 154.44C325.277 154.324 324.983 154.201 324.689 154.078C324.084 153.827 323.49 153.563 322.897 153.281C322.561 153.115 322.225 152.955 321.896 152.79C320.595 152.145 319.313 151.429 318.052 150.642C317.74 150.451 317.429 150.249 317.117 150.047C316.727 149.801 316.35 149.543 315.972 149.286C315.762 149.138 315.558 148.997 315.354 148.85C314.977 148.58 314.605 148.304 314.239 148.027C314.047 147.886 313.855 147.739 313.67 147.592C313.004 147.076 312.351 146.536 311.709 145.984C311.403 145.72 311.097 145.45 310.798 145.174C310.672 145.063 310.546 144.947 310.42 144.83C310.276 144.695 310.132 144.566 309.994 144.425L309.982 144.413C309.773 144.222 309.562 144.02 309.359 143.818C309.041 143.511 308.729 143.198 308.429 142.879C308.118 142.566 307.818 142.24 307.524 141.921C307.224 141.602 306.937 141.277 306.655 140.945C306.367 140.62 306.085 140.289 305.809 139.951C305.539 139.632 305.276 139.301 305.024 138.976C304.412 138.202 303.829 137.415 303.273 136.613C303.015 136.245 302.77 135.876 302.53 135.502C302.272 135.122 302.026 134.735 301.792 134.348C301.546 133.962 301.313 133.569 301.085 133.17C301.079 133.156 301.071 133.144 301.061 133.133C300.611 132.354 300.179 131.568 299.778 130.771C299.364 129.96 298.974 129.142 298.609 128.316C298.423 127.905 298.243 127.487 298.075 127.07C297.727 126.229 297.403 125.389 297.104 124.535C296.954 124.124 296.816 123.713 296.678 123.296C296.674 123.268 296.666 123.241 296.654 123.216C296.378 122.369 296.126 121.516 295.905 120.657C295.899 120.645 295.899 120.633 295.893 120.62C295.779 120.197 295.671 119.773 295.575 119.344C295.479 118.969 295.395 118.595 295.317 118.215C295.227 117.791 295.137 117.368 295.059 116.938C295.017 116.717 294.975 116.496 294.939 116.275C294.903 116.091 294.873 115.901 294.843 115.717C294.813 115.533 294.783 115.342 294.753 115.152C294.693 114.778 294.639 114.404 294.592 114.029C294.532 113.587 294.484 113.145 294.436 112.697C294.382 112.164 294.334 111.63 294.292 111.09C294.262 110.728 294.244 110.359 294.226 109.991C294.208 109.654 294.19 109.316 294.184 108.979C294.178 108.961 294.178 108.941 294.184 108.923C294.183 108.923 294.182 108.922 294.182 108.921C294.182 108.919 294.181 108.918 294.181 108.917C294.181 108.916 294.182 108.915 294.182 108.914C294.182 108.913 294.183 108.912 294.184 108.911C294.178 108.905 294.178 108.905 294.184 108.899C294.183 108.898 294.182 108.897 294.182 108.896C294.182 108.895 294.181 108.894 294.181 108.893C294.181 108.891 294.182 108.89 294.182 108.889C294.182 108.888 294.183 108.887 294.184 108.886C294.178 108.751 294.172 108.617 294.172 108.482C294.16 108.083 294.154 107.684 294.154 107.285C294.154 106.923 294.16 106.567 294.166 106.205C294.178 105.701 294.196 105.198 294.22 104.695C294.22 104.585 294.232 104.48 294.238 104.37C294.244 104.259 294.25 104.155 294.256 104.044C294.268 103.811 294.286 103.578 294.31 103.345C294.309 103.302 294.311 103.259 294.316 103.216C294.334 102.952 294.358 102.688 294.382 102.424C294.43 101.897 294.49 101.363 294.555 100.835C294.591 100.571 294.622 100.307 294.664 100.043C294.687 99.8592 294.717 99.6689 294.747 99.4787C294.771 99.2884 294.801 99.0982 294.837 98.908C294.879 98.6564 294.921 98.3985 294.969 98.1407C294.993 97.9873 295.023 97.8339 295.053 97.6805C295.167 97.0668 295.293 96.4532 295.431 95.8395C295.569 95.2197 295.725 94.606 295.892 93.9923C296.054 93.3725 296.234 92.7527 296.426 92.1329C296.516 91.8199 296.612 91.5131 296.72 91.2062C296.918 90.5864 297.128 89.9727 297.362 89.3652C297.469 89.0644 297.583 88.7576 297.709 88.4569C297.949 87.8493 298.201 87.2418 298.459 86.6465C298.591 86.3458 298.723 86.0451 298.866 85.7444C299.136 85.1491 299.418 84.5538 299.724 83.9708C300.018 83.3756 300.335 82.7926 300.659 82.2157C300.983 81.6388 301.319 81.062 301.672 80.4912C301.834 80.2089 302.014 79.9205 302.2 79.6444C302.56 79.0798 302.937 78.5152 303.321 77.9628C304.095 76.8458 304.928 75.7473 305.809 74.6795ZM294.304 103.345C294.286 103.578 294.268 103.811 294.256 104.044C294.268 103.811 294.286 103.578 294.31 103.345C294.309 103.302 294.311 103.259 294.316 103.216C294.31 103.259 294.31 103.302 294.304 103.345ZM295.047 97.6805C295.023 97.8339 294.993 97.9873 294.969 98.1407C294.993 97.9873 295.023 97.8339 295.053 97.6805H295.047ZM309.982 144.413V144.419C309.982 144.425 309.988 144.425 309.994 144.425L309.982 144.413Z" fill="#3F3D56"/>
<path opacity="0.3" d="M311.71 145.983C302.226 137.792 296.099 126.25 294.545 113.648C292.991 101.047 296.124 88.3085 303.321 77.962C302.376 78.9363 301.462 79.9567 300.58 81.0231C296.394 86.1015 293.225 91.9742 291.256 98.3058C289.287 104.638 288.556 111.304 289.104 117.925C289.652 124.546 291.468 130.992 294.45 136.894C297.432 142.797 301.52 148.04 306.482 152.325C316.502 160.979 329.47 165.205 342.534 164.072C355.598 162.939 367.687 156.541 376.142 146.284C377.023 145.217 377.852 144.123 378.629 143.004C369.876 152.006 358.135 157.31 345.738 157.862C333.34 158.414 321.194 154.174 311.71 145.983Z" fill="black"/>
</g>
<defs>
<clipPath id="clip0_1_17556">
<rect width="545" height="278" fill="white"/>
</clipPath>
</defs>
</svg>
