<svg width="62" height="61" viewBox="0 0 62 61" fill="none" xmlns="http://www.w3.org/2000/svg">
<path d="M0.1147 30.1644C0.1147 46.7519 13.8266 60.1988 30.7411 60.1988C47.6556 60.1988 61.3675 46.7519 61.3675 30.1644C61.3675 13.5769 47.6556 0.13002 30.7411 0.13002C13.8266 0.13002 0.1147 13.5769 0.1147 30.1644ZM50.6493 22.9722L45.2229 26.4405L43.1381 23.3035L50.6493 22.9722ZM42.3882 40.6113L43.8333 37.1454L48.3835 43.0153L42.3882 40.6113ZM28.4934 52.4977L32.3117 46.1458V52.4977H28.4934ZM28.4934 15.7233L32.3117 9.37137V15.7233H28.4934ZM11.5281 43.0153L16.0783 37.1454L17.5234 40.6113L11.5281 43.0153ZM9.26232 22.9722L16.7735 23.3035L14.6887 26.4405L9.26232 22.9722Z" fill="#E6E6E6"/>
</svg>
