<svg width="62" height="61" viewBox="0 0 62 61" fill="none" xmlns="http://www.w3.org/2000/svg">
<path d="M0.166443 30.1644C0.166443 46.7519 13.8783 60.1988 30.7928 60.1988C47.7073 60.1988 61.4192 46.7519 61.4192 30.1644C61.4192 13.5769 47.7073 0.13002 30.7928 0.13002C13.8783 0.13002 0.166443 13.5769 0.166443 30.1644ZM50.701 22.9722L45.2746 26.4405L43.1898 23.3035L50.701 22.9722ZM42.4399 40.6113L43.885 37.1454L48.4352 43.0153L42.4399 40.6113ZM28.5452 52.4977L32.3634 46.1458V52.4977H28.5452ZM28.5452 15.7233L32.3634 9.37137V15.7233H28.5452ZM11.5799 43.0153L16.1301 37.1454L17.5752 40.6113L11.5799 43.0153ZM9.31406 22.9722L16.8252 23.3035L14.7405 26.4405L9.31406 22.9722Z" fill="#E6E6E6"/>
</svg>
