<svg width="667" height="204" viewBox="0 0 667 204" fill="none" xmlns="http://www.w3.org/2000/svg">
<path d="M11.8928 186.607L1.62217 127.853C-2.94161 101.746 16.7623 77.5866 43.7366 76.2165L190.154 68.7797L225.098 12.2998C229.731 4.8122 238.014 0.239716 246.944 0.239716H352.149C360.419 0.239716 367.406 6.25364 368.479 14.2949L371.151 59.4875L633.439 60.2576L666.434 166.893L635.807 165.429L637.378 197.774L597.328 199.314L583.977 162.293C581.463 155.322 570.447 147.462 558.997 140.886C533.328 126.143 500.35 130.875 480.924 152.968C476.342 158.18 473.138 163.61 472.243 168.702L466.184 203.164L172.485 198.544L133.993 145.74C122.621 133.604 68.9365 129.146 64.1019 145.74L35.0589 187.762L11.8928 186.607Z" fill="#E6E6E6"/>
</svg>
